<mxfile host="app.diagrams.net" modified="2021-04-21T09:18:18.436Z" agent="5.0 (Windows NT 6.1; Win64; x64) AppleWebKit/537.36 (KHTML, like Gecko) Chrome/89.0.4389.128 Safari/537.36" etag="Bc9Z0ES1dQAGayDE-uBb" version="14.6.3" type="github">
  <diagram id="gRSTNn4uA7f2-AXw2Ax9" name="Page-1">
    <mxGraphModel dx="1422" dy="705" grid="1" gridSize="10" guides="1" tooltips="1" connect="1" arrows="1" fold="1" page="1" pageScale="1" pageWidth="827" pageHeight="1169" background="#FFF2CC" math="0" shadow="0">
      <root>
        <mxCell id="0" />
        <mxCell id="1" parent="0" />
        <mxCell id="Dw8fupntq4VYRNiHh3ej-1" value="&lt;font style=&quot;font-size: 14px&quot;&gt;iFind数据库&lt;/font&gt;" style="shape=cylinder3;whiteSpace=wrap;html=1;boundedLbl=1;backgroundOutline=1;size=15;direction=south;" parent="1" vertex="1">
          <mxGeometry x="195" y="40" width="110" height="60" as="geometry" />
        </mxCell>
        <mxCell id="Dw8fupntq4VYRNiHh3ej-4" style="edgeStyle=orthogonalEdgeStyle;rounded=0;orthogonalLoop=1;jettySize=auto;html=1;entryX=1;entryY=0.5;entryDx=0;entryDy=0;entryPerimeter=0;startArrow=none;" parent="1" source="gnkGl8Yak3BaGsm__O2s-11" target="Dw8fupntq4VYRNiHh3ej-1" edge="1">
          <mxGeometry relative="1" as="geometry" />
        </mxCell>
        <mxCell id="gnkGl8Yak3BaGsm__O2s-22" value="" style="edgeStyle=orthogonalEdgeStyle;rounded=0;orthogonalLoop=1;jettySize=auto;html=1;" edge="1" parent="1" source="Dw8fupntq4VYRNiHh3ej-2" target="Dw8fupntq4VYRNiHh3ej-19">
          <mxGeometry relative="1" as="geometry" />
        </mxCell>
        <mxCell id="gnkGl8Yak3BaGsm__O2s-35" value="" style="edgeStyle=orthogonalEdgeStyle;rounded=0;orthogonalLoop=1;jettySize=auto;html=1;entryX=0.5;entryY=1;entryDx=0;entryDy=0;" edge="1" parent="1" source="Dw8fupntq4VYRNiHh3ej-2" target="Dw8fupntq4VYRNiHh3ej-6">
          <mxGeometry relative="1" as="geometry">
            <mxPoint x="680" y="180" as="targetPoint" />
          </mxGeometry>
        </mxCell>
        <mxCell id="Dw8fupntq4VYRNiHh3ej-2" value="&lt;font style=&quot;font-size: 14px&quot;&gt;uscalculate&lt;br&gt;美股预测模块&lt;br&gt;&lt;/font&gt;" style="whiteSpace=wrap;html=1;" parent="1" vertex="1">
          <mxGeometry x="480" y="120" width="120" height="60" as="geometry" />
        </mxCell>
        <mxCell id="Dw8fupntq4VYRNiHh3ej-5" value="&lt;font style=&quot;font-size: 14px&quot;&gt;首次/定时从&lt;br&gt;iFnd更新数据&lt;/font&gt;" style="text;html=1;align=center;verticalAlign=middle;resizable=0;points=[];autosize=1;strokeColor=none;" parent="1" vertex="1">
          <mxGeometry x="140" y="110" width="100" height="40" as="geometry" />
        </mxCell>
        <mxCell id="gnkGl8Yak3BaGsm__O2s-21" value="" style="edgeStyle=orthogonalEdgeStyle;rounded=0;orthogonalLoop=1;jettySize=auto;html=1;" edge="1" parent="1" source="Dw8fupntq4VYRNiHh3ej-6" target="Dw8fupntq4VYRNiHh3ej-2">
          <mxGeometry relative="1" as="geometry" />
        </mxCell>
        <mxCell id="Dw8fupntq4VYRNiHh3ej-6" value="&lt;font style=&quot;font-size: 14px&quot;&gt;前端系统&lt;br&gt;&lt;/font&gt;" style="whiteSpace=wrap;html=1;" parent="1" vertex="1">
          <mxGeometry x="480" y="20" width="120" height="60" as="geometry" />
        </mxCell>
        <mxCell id="Dw8fupntq4VYRNiHh3ej-15" value="&lt;font style=&quot;font-size: 14px&quot;&gt;存到MySQL&lt;/font&gt;" style="text;html=1;align=center;verticalAlign=middle;resizable=0;points=[];autosize=1;strokeColor=none;" parent="1" vertex="1">
          <mxGeometry x="400" y="410" width="90" height="20" as="geometry" />
        </mxCell>
        <mxCell id="gnkGl8Yak3BaGsm__O2s-23" value="" style="edgeStyle=orthogonalEdgeStyle;rounded=0;orthogonalLoop=1;jettySize=auto;html=1;" edge="1" parent="1" source="Dw8fupntq4VYRNiHh3ej-19" target="gnkGl8Yak3BaGsm__O2s-13">
          <mxGeometry relative="1" as="geometry" />
        </mxCell>
        <mxCell id="gnkGl8Yak3BaGsm__O2s-27" value="" style="edgeStyle=orthogonalEdgeStyle;rounded=0;orthogonalLoop=1;jettySize=auto;html=1;entryX=0.5;entryY=1;entryDx=0;entryDy=0;" edge="1" parent="1" source="Dw8fupntq4VYRNiHh3ej-19" target="Dw8fupntq4VYRNiHh3ej-2">
          <mxGeometry relative="1" as="geometry" />
        </mxCell>
        <mxCell id="Dw8fupntq4VYRNiHh3ej-19" value="&lt;font style=&quot;font-size: 14px&quot;&gt;Redis缓存&lt;/font&gt;" style="shape=cylinder3;whiteSpace=wrap;html=1;boundedLbl=1;backgroundOutline=1;size=15;direction=south;" parent="1" vertex="1">
          <mxGeometry x="485" y="250" width="110" height="60" as="geometry" />
        </mxCell>
        <mxCell id="Dw8fupntq4VYRNiHh3ej-22" value="&lt;font style=&quot;font-size: 14px&quot;&gt;直接去Redis取数据&lt;/font&gt;" style="text;html=1;align=center;verticalAlign=middle;resizable=0;points=[];autosize=1;strokeColor=none;" parent="1" vertex="1">
          <mxGeometry x="400" y="210" width="140" height="20" as="geometry" />
        </mxCell>
        <mxCell id="Dw8fupntq4VYRNiHh3ej-26" value="&lt;font style=&quot;font-size: 14px&quot;&gt;Redis中没有去&lt;br&gt;Mysql中取&lt;/font&gt;" style="text;html=1;align=center;verticalAlign=middle;resizable=0;points=[];autosize=1;strokeColor=none;" parent="1" vertex="1">
          <mxGeometry x="440" y="330" width="110" height="40" as="geometry" />
        </mxCell>
        <mxCell id="Dw8fupntq4VYRNiHh3ej-33" value="&lt;font style=&quot;font-size: 14px&quot;&gt;缓存到Redis&lt;/font&gt;" style="text;html=1;align=center;verticalAlign=middle;resizable=0;points=[];autosize=1;strokeColor=none;" parent="1" vertex="1">
          <mxGeometry x="400" y="290" width="90" height="20" as="geometry" />
        </mxCell>
        <mxCell id="gnkGl8Yak3BaGsm__O2s-4" value="" style="edgeStyle=orthogonalEdgeStyle;rounded=0;orthogonalLoop=1;jettySize=auto;html=1;" edge="1" parent="1" target="gnkGl8Yak3BaGsm__O2s-3">
          <mxGeometry relative="1" as="geometry">
            <mxPoint x="250" y="210" as="sourcePoint" />
            <Array as="points">
              <mxPoint x="250" y="270" />
              <mxPoint x="80" y="270" />
              <mxPoint x="80" y="480" />
              <mxPoint x="340" y="480" />
            </Array>
          </mxGeometry>
        </mxCell>
        <mxCell id="gnkGl8Yak3BaGsm__O2s-2" value="&lt;font style=&quot;font-size: 14px&quot;&gt;N&lt;/font&gt;" style="text;html=1;align=center;verticalAlign=middle;resizable=0;points=[];autosize=1;strokeColor=none;" vertex="1" parent="1">
          <mxGeometry x="260" y="340" width="30" height="20" as="geometry" />
        </mxCell>
        <mxCell id="gnkGl8Yak3BaGsm__O2s-31" value="" style="edgeStyle=orthogonalEdgeStyle;rounded=0;orthogonalLoop=1;jettySize=auto;html=1;" edge="1" parent="1" source="gnkGl8Yak3BaGsm__O2s-3" target="gnkGl8Yak3BaGsm__O2s-17">
          <mxGeometry relative="1" as="geometry" />
        </mxCell>
        <mxCell id="gnkGl8Yak3BaGsm__O2s-3" value="&lt;span style=&quot;font-size: 14px&quot;&gt;异常处理&lt;br&gt;&lt;/span&gt;" style="whiteSpace=wrap;html=1;" vertex="1" parent="1">
          <mxGeometry x="280" y="525" width="120" height="60" as="geometry" />
        </mxCell>
        <mxCell id="gnkGl8Yak3BaGsm__O2s-29" value="" style="edgeStyle=orthogonalEdgeStyle;rounded=0;orthogonalLoop=1;jettySize=auto;html=1;entryX=1;entryY=0.5;entryDx=0;entryDy=0;entryPerimeter=0;" edge="1" parent="1" source="gnkGl8Yak3BaGsm__O2s-13" target="Dw8fupntq4VYRNiHh3ej-19">
          <mxGeometry relative="1" as="geometry">
            <mxPoint x="675" y="440" as="targetPoint" />
          </mxGeometry>
        </mxCell>
        <mxCell id="gnkGl8Yak3BaGsm__O2s-13" value="&lt;font style=&quot;font-size: 14px&quot;&gt;MySQL数据库&lt;/font&gt;" style="shape=cylinder3;whiteSpace=wrap;html=1;boundedLbl=1;backgroundOutline=1;size=15;direction=south;" vertex="1" parent="1">
          <mxGeometry x="485" y="370" width="110" height="60" as="geometry" />
        </mxCell>
        <mxCell id="gnkGl8Yak3BaGsm__O2s-25" value="" style="edgeStyle=orthogonalEdgeStyle;rounded=0;orthogonalLoop=1;jettySize=auto;html=1;entryX=0.5;entryY=1;entryDx=0;entryDy=0;entryPerimeter=0;" edge="1" parent="1" source="gnkGl8Yak3BaGsm__O2s-11" target="Dw8fupntq4VYRNiHh3ej-19">
          <mxGeometry relative="1" as="geometry">
            <mxPoint x="480" y="310" as="targetPoint" />
            <Array as="points">
              <mxPoint x="400" y="350" />
              <mxPoint x="400" y="280" />
            </Array>
          </mxGeometry>
        </mxCell>
        <mxCell id="gnkGl8Yak3BaGsm__O2s-26" style="edgeStyle=orthogonalEdgeStyle;rounded=0;orthogonalLoop=1;jettySize=auto;html=1;entryX=0.5;entryY=1;entryDx=0;entryDy=0;entryPerimeter=0;" edge="1" parent="1" source="gnkGl8Yak3BaGsm__O2s-11" target="gnkGl8Yak3BaGsm__O2s-13">
          <mxGeometry relative="1" as="geometry">
            <Array as="points">
              <mxPoint x="400" y="350" />
              <mxPoint x="400" y="400" />
            </Array>
          </mxGeometry>
        </mxCell>
        <mxCell id="gnkGl8Yak3BaGsm__O2s-11" value="定时任务模块" style="rounded=0;whiteSpace=wrap;html=1;" vertex="1" parent="1">
          <mxGeometry x="190" y="330" width="120" height="60" as="geometry" />
        </mxCell>
        <mxCell id="gnkGl8Yak3BaGsm__O2s-17" value="Actor" style="shape=umlActor;verticalLabelPosition=bottom;verticalAlign=top;html=1;outlineConnect=0;" vertex="1" parent="1">
          <mxGeometry x="325" y="630" width="30" height="60" as="geometry" />
        </mxCell>
        <mxCell id="gnkGl8Yak3BaGsm__O2s-19" value="开发者" style="text;html=1;align=center;verticalAlign=middle;resizable=0;points=[];autosize=1;strokeColor=none;" vertex="1" parent="1">
          <mxGeometry x="364" y="640" width="50" height="20" as="geometry" />
        </mxCell>
        <mxCell id="gnkGl8Yak3BaGsm__O2s-38" value="" style="endArrow=none;html=1;" edge="1" parent="1">
          <mxGeometry width="50" height="50" relative="1" as="geometry">
            <mxPoint x="340" y="490" as="sourcePoint" />
            <mxPoint x="340" y="350" as="targetPoint" />
          </mxGeometry>
        </mxCell>
        <mxCell id="gnkGl8Yak3BaGsm__O2s-39" value="" style="endArrow=none;html=1;" edge="1" parent="1">
          <mxGeometry width="50" height="50" relative="1" as="geometry">
            <mxPoint x="720" y="480" as="sourcePoint" />
            <mxPoint x="720" y="210" as="targetPoint" />
          </mxGeometry>
        </mxCell>
        <mxCell id="gnkGl8Yak3BaGsm__O2s-41" value="" style="endArrow=none;html=1;" edge="1" parent="1">
          <mxGeometry width="50" height="50" relative="1" as="geometry">
            <mxPoint x="720" y="209" as="sourcePoint" />
            <mxPoint x="539" y="209" as="targetPoint" />
          </mxGeometry>
        </mxCell>
        <mxCell id="gnkGl8Yak3BaGsm__O2s-42" value="" style="endArrow=none;html=1;entryX=0.064;entryY=-0.05;entryDx=0;entryDy=0;entryPerimeter=0;" edge="1" parent="1">
          <mxGeometry width="50" height="50" relative="1" as="geometry">
            <mxPoint x="721.04" y="330" as="sourcePoint" />
            <mxPoint x="540" y="330" as="targetPoint" />
          </mxGeometry>
        </mxCell>
        <mxCell id="gnkGl8Yak3BaGsm__O2s-43" value="" style="endArrow=none;html=1;" edge="1" parent="1">
          <mxGeometry width="50" height="50" relative="1" as="geometry">
            <mxPoint x="340" y="480" as="sourcePoint" />
            <mxPoint x="720" y="480" as="targetPoint" />
          </mxGeometry>
        </mxCell>
        <mxCell id="gnkGl8Yak3BaGsm__O2s-44" value="&lt;font style=&quot;font-size: 14px&quot;&gt;出现异常&lt;/font&gt;" style="text;html=1;align=center;verticalAlign=middle;resizable=0;points=[];autosize=1;strokeColor=none;" vertex="1" parent="1">
          <mxGeometry x="270" y="480" width="70" height="20" as="geometry" />
        </mxCell>
        <mxCell id="gnkGl8Yak3BaGsm__O2s-45" value="&lt;font style=&quot;font-size: 14px&quot;&gt;通知&lt;/font&gt;" style="text;html=1;align=center;verticalAlign=middle;resizable=0;points=[];autosize=1;strokeColor=none;" vertex="1" parent="1">
          <mxGeometry x="350" y="590" width="40" height="20" as="geometry" />
        </mxCell>
        <mxCell id="gnkGl8Yak3BaGsm__O2s-46" value="" style="endArrow=classic;html=1;" edge="1" parent="1">
          <mxGeometry width="50" height="50" relative="1" as="geometry">
            <mxPoint x="250" y="270" as="sourcePoint" />
            <mxPoint x="190" y="270" as="targetPoint" />
          </mxGeometry>
        </mxCell>
        <mxCell id="gnkGl8Yak3BaGsm__O2s-47" value="" style="endArrow=classic;html=1;" edge="1" parent="1">
          <mxGeometry width="50" height="50" relative="1" as="geometry">
            <mxPoint x="190" y="270" as="sourcePoint" />
            <mxPoint x="130" y="270" as="targetPoint" />
          </mxGeometry>
        </mxCell>
        <mxCell id="gnkGl8Yak3BaGsm__O2s-48" value="" style="endArrow=classic;html=1;" edge="1" parent="1">
          <mxGeometry width="50" height="50" relative="1" as="geometry">
            <mxPoint x="570" y="210" as="sourcePoint" />
            <mxPoint x="620" y="210" as="targetPoint" />
          </mxGeometry>
        </mxCell>
        <mxCell id="gnkGl8Yak3BaGsm__O2s-49" value="" style="endArrow=classic;html=1;" edge="1" parent="1">
          <mxGeometry width="50" height="50" relative="1" as="geometry">
            <mxPoint x="640" y="210" as="sourcePoint" />
            <mxPoint x="690" y="210" as="targetPoint" />
          </mxGeometry>
        </mxCell>
        <mxCell id="gnkGl8Yak3BaGsm__O2s-50" value="" style="endArrow=classic;html=1;" edge="1" parent="1">
          <mxGeometry width="50" height="50" relative="1" as="geometry">
            <mxPoint x="720" y="210" as="sourcePoint" />
            <mxPoint x="720" y="260" as="targetPoint" />
          </mxGeometry>
        </mxCell>
        <mxCell id="gnkGl8Yak3BaGsm__O2s-51" value="" style="endArrow=classic;html=1;" edge="1" parent="1">
          <mxGeometry width="50" height="50" relative="1" as="geometry">
            <mxPoint x="570" y="329" as="sourcePoint" />
            <mxPoint x="620" y="329" as="targetPoint" />
          </mxGeometry>
        </mxCell>
        <mxCell id="gnkGl8Yak3BaGsm__O2s-52" value="" style="endArrow=classic;html=1;" edge="1" parent="1">
          <mxGeometry width="50" height="50" relative="1" as="geometry">
            <mxPoint x="640" y="330" as="sourcePoint" />
            <mxPoint x="690" y="330" as="targetPoint" />
          </mxGeometry>
        </mxCell>
        <mxCell id="gnkGl8Yak3BaGsm__O2s-53" value="" style="endArrow=classic;html=1;" edge="1" parent="1">
          <mxGeometry width="50" height="50" relative="1" as="geometry">
            <mxPoint x="720" y="275" as="sourcePoint" />
            <mxPoint x="720" y="325" as="targetPoint" />
          </mxGeometry>
        </mxCell>
        <mxCell id="gnkGl8Yak3BaGsm__O2s-54" value="" style="endArrow=classic;html=1;" edge="1" parent="1">
          <mxGeometry width="50" height="50" relative="1" as="geometry">
            <mxPoint x="720" y="330" as="sourcePoint" />
            <mxPoint x="720" y="380" as="targetPoint" />
          </mxGeometry>
        </mxCell>
        <mxCell id="gnkGl8Yak3BaGsm__O2s-55" value="" style="endArrow=classic;html=1;" edge="1" parent="1">
          <mxGeometry width="50" height="50" relative="1" as="geometry">
            <mxPoint x="720" y="390" as="sourcePoint" />
            <mxPoint x="720" y="440" as="targetPoint" />
          </mxGeometry>
        </mxCell>
        <mxCell id="gnkGl8Yak3BaGsm__O2s-56" value="" style="endArrow=classic;html=1;" edge="1" parent="1">
          <mxGeometry width="50" height="50" relative="1" as="geometry">
            <mxPoint x="80" y="275" as="sourcePoint" />
            <mxPoint x="80" y="325" as="targetPoint" />
          </mxGeometry>
        </mxCell>
        <mxCell id="gnkGl8Yak3BaGsm__O2s-57" value="" style="endArrow=classic;html=1;" edge="1" parent="1">
          <mxGeometry width="50" height="50" relative="1" as="geometry">
            <mxPoint x="80" y="335" as="sourcePoint" />
            <mxPoint x="80" y="385" as="targetPoint" />
          </mxGeometry>
        </mxCell>
        <mxCell id="gnkGl8Yak3BaGsm__O2s-58" value="" style="endArrow=classic;html=1;" edge="1" parent="1">
          <mxGeometry width="50" height="50" relative="1" as="geometry">
            <mxPoint x="80" y="400" as="sourcePoint" />
            <mxPoint x="80" y="450" as="targetPoint" />
          </mxGeometry>
        </mxCell>
        <mxCell id="gnkGl8Yak3BaGsm__O2s-59" value="" style="endArrow=classic;html=1;" edge="1" parent="1">
          <mxGeometry width="50" height="50" relative="1" as="geometry">
            <mxPoint x="80" y="480" as="sourcePoint" />
            <mxPoint x="130" y="480" as="targetPoint" />
          </mxGeometry>
        </mxCell>
        <mxCell id="gnkGl8Yak3BaGsm__O2s-60" value="" style="endArrow=classic;html=1;" edge="1" parent="1">
          <mxGeometry width="50" height="50" relative="1" as="geometry">
            <mxPoint x="160" y="480" as="sourcePoint" />
            <mxPoint x="210" y="480" as="targetPoint" />
          </mxGeometry>
        </mxCell>
        <mxCell id="gnkGl8Yak3BaGsm__O2s-61" value="" style="endArrow=classic;html=1;" edge="1" parent="1">
          <mxGeometry width="50" height="50" relative="1" as="geometry">
            <mxPoint x="250" y="480" as="sourcePoint" />
            <mxPoint x="300" y="480" as="targetPoint" />
          </mxGeometry>
        </mxCell>
        <mxCell id="gnkGl8Yak3BaGsm__O2s-62" value="" style="endArrow=classic;html=1;" edge="1" parent="1">
          <mxGeometry width="50" height="50" relative="1" as="geometry">
            <mxPoint x="720" y="480" as="sourcePoint" />
            <mxPoint x="660" y="480" as="targetPoint" />
          </mxGeometry>
        </mxCell>
        <mxCell id="gnkGl8Yak3BaGsm__O2s-63" value="" style="endArrow=classic;html=1;" edge="1" parent="1">
          <mxGeometry width="50" height="50" relative="1" as="geometry">
            <mxPoint x="660" y="480" as="sourcePoint" />
            <mxPoint x="600" y="480" as="targetPoint" />
          </mxGeometry>
        </mxCell>
        <mxCell id="gnkGl8Yak3BaGsm__O2s-64" value="" style="endArrow=classic;html=1;" edge="1" parent="1">
          <mxGeometry width="50" height="50" relative="1" as="geometry">
            <mxPoint x="600" y="480" as="sourcePoint" />
            <mxPoint x="540" y="480" as="targetPoint" />
          </mxGeometry>
        </mxCell>
        <mxCell id="gnkGl8Yak3BaGsm__O2s-65" value="" style="endArrow=classic;html=1;" edge="1" parent="1">
          <mxGeometry width="50" height="50" relative="1" as="geometry">
            <mxPoint x="520" y="480" as="sourcePoint" />
            <mxPoint x="460" y="480" as="targetPoint" />
          </mxGeometry>
        </mxCell>
        <mxCell id="gnkGl8Yak3BaGsm__O2s-66" value="" style="endArrow=classic;html=1;" edge="1" parent="1">
          <mxGeometry width="50" height="50" relative="1" as="geometry">
            <mxPoint x="440" y="480" as="sourcePoint" />
            <mxPoint x="380" y="480" as="targetPoint" />
          </mxGeometry>
        </mxCell>
        <mxCell id="gnkGl8Yak3BaGsm__O2s-67" value="" style="endArrow=classic;html=1;" edge="1" parent="1">
          <mxGeometry width="50" height="50" relative="1" as="geometry">
            <mxPoint x="340" y="350" as="sourcePoint" />
            <mxPoint x="340" y="400" as="targetPoint" />
          </mxGeometry>
        </mxCell>
        <mxCell id="gnkGl8Yak3BaGsm__O2s-68" value="" style="endArrow=classic;html=1;" edge="1" parent="1">
          <mxGeometry width="50" height="50" relative="1" as="geometry">
            <mxPoint x="340" y="410" as="sourcePoint" />
            <mxPoint x="340" y="460" as="targetPoint" />
          </mxGeometry>
        </mxCell>
      </root>
    </mxGraphModel>
  </diagram>
</mxfile>
